<svg xmlns="http://www.w3.org/2000/svg" viewBox="0 0 283.15 272.71"><g id="Calque_2" data-name="Calque 2"><g id="ToExport"><path d="M190.55,28h-29s3.82,16.11,11.25,27.08h35.44c7.43-11,11.25-27.08,11.25-27.08Z" style="fill:#bababa"/><path d="M161.57,28s3.82,16.11,11.25,27.08h14c-2.52-11-3.81-27.08-3.81-27.08Z" style="fill:#c9c9c9"/><path d="M161.57,28a4.94,4.94,0,0,1,0-7.32c3.74-3.89,0-12.29,5.6-13.23s7.48-6.54,15-5.6,14-5.61,21.48,1.87,11.2,4.67,12.14,11.2,6.6,9.34,3.77,13.08Z" style="fill:#73a230"/><path d="M167,23.26a8.32,8.32,0,0,0-.19-3.56,13,13,0,0,1-.27-4,6.51,6.51,0,0,1,.64-2.16,5.89,5.89,0,0,1,1.47-1.81A9.53,9.53,0,0,1,172.62,10,23,23,0,0,0,176,9a23.71,23.71,0,0,0,3.19-1.66A12.37,12.37,0,0,1,181,6.41,4.82,4.82,0,0,1,183.11,6a8.38,8.38,0,0,1,3.75,1.32l-.14.32a9.68,9.68,0,0,0-3.55-.4,6.43,6.43,0,0,0-2.93,1.62A18.5,18.5,0,0,1,176.92,11a17.87,17.87,0,0,1-3.77,1.35,8.07,8.07,0,0,0-2.94,1.28,4.21,4.21,0,0,0-1.51,2.45,20.11,20.11,0,0,0-.33,3.54,15,15,0,0,1-.21,2,3.85,3.85,0,0,1-.85,1.87Z" style="fill:#3d7616"/><path d="M213.3,23a24.77,24.77,0,0,1-3.19-4.6,9.7,9.7,0,0,0-3.54-3.69,4.87,4.87,0,0,0-4.54.62,27.59,27.59,0,0,1-2.44,1.46,13.92,13.92,0,0,1-2.79,1,16.45,16.45,0,0,1-5.88.35c-1.92-.2-3.79-.68-5.51-.95a4.53,4.53,0,0,0-2.08,0l-.16.08-.34.19c-.22.13-.45.24-.67.35a14.51,14.51,0,0,1-1.36.57,16.79,16.79,0,0,1-5.64.95l-.09-.43c1.69-.81,3.38-1.52,4.94-2.35.39-.2.77-.4,1.14-.63.18-.11.36-.22.53-.34l.25-.18.45-.26a4.1,4.1,0,0,1,1.83-.37,9.47,9.47,0,0,1,1.55.15c1.93.33,3.65.8,5.41,1a15.38,15.38,0,0,0,5.16-.14,12.44,12.44,0,0,0,2.44-.8c.81-.35,1.48-.76,2.4-1.26a8.64,8.64,0,0,1,2.92-.95,5.23,5.23,0,0,1,3.13.62,10,10,0,0,1,3.71,4.51c.42.83.8,1.68,1.2,2.5a11.69,11.69,0,0,0,1.38,2.35Z" style="fill:#3d7616"/><path d="M194.69,6.55a10.17,10.17,0,0,1,3.22-.76,13.63,13.63,0,0,1,3.37.12,6.33,6.33,0,0,1,3.2,1.38c.39.34.78.69,1.18,1a6.26,6.26,0,0,0,.6.45c.2.12.41.26.55.11h.11c.05.2-.15.38-.32.42a1.79,1.79,0,0,1-.5.06,3.77,3.77,0,0,1-.89-.15,9.57,9.57,0,0,1-1.59-.63c-.88-.37-1.77-.73-2.73-1.06a19.15,19.15,0,0,0-3-.7,15.15,15.15,0,0,0-3.17-.16Z" style="fill:#3d7616"/><rect x="185.02" y="42.97" width="79.8" height="13.15" style="fill:#c68442"/><rect x="72.85" y="50.43" width="86.44" height="5.69" style="fill:#474746"/><path d="M241.58,16.66l-.44,0v0H196.42V29.81h44.72v0l.44,0a6.58,6.58,0,1,0,0-13.15Z" style="fill:#1e536c"/><path d="M241.4,19.29l-.3,0v0H196.42v7.89H241.1v0l.3,0a3.95,3.95,0,1,0,0-7.89Z" style="fill:#fefeff"/><path d="M246,29.81l-.43,0v0H200.8V43h44.73v0l.43,0a6.58,6.58,0,0,0,0-13.16Z" style="fill:#ec7756"/><path d="M245.79,32.44c-.11,0-.2,0-.31,0v0H200.8v7.9h44.68v0c.11,0,.2,0,.31,0a4,4,0,0,0,0-7.9Z" style="fill:#fefeff"/><path d="M17.41,99.8A12.76,12.76,0,0,0,30.17,87h0V12.77h0A12.76,12.76,0,0,0,17.41,0h0V99.8Z" style="fill:#c68442"/><path d="M130.55,139.26H23.79A12.76,12.76,0,0,0,11,152h132.3A12.76,12.76,0,0,0,130.55,139.26Z" style="fill:#c68442"/><path d="M11,152a12.67,12.67,0,0,0,1,4.89c-4.28-4.52-5-11-5-16.49v-46A12.74,12.74,0,0,0,17.41,99.8h0V0h0A12.76,12.76,0,0,0,4.64,12.76h0V47.58H2.31v92.84c0,16.22,7.3,25.1,21.69,26.48L0,272.71H9.28L33.76,164.79h85.77V272.71h9.28V164.79h1.74A12.77,12.77,0,0,0,143.32,152Z" style="fill:#4b4b4b"/><rect x="49.9" y="55.7" width="233.25" height="15.09" style="fill:#fefeff"/><polygon points="249.5 70.79 83.55 70.79 63.83 70.79 63.83 272.71 83.55 272.71 83.55 113.72 249.5 113.72 249.5 272.71 269.23 272.71 269.23 70.79 249.5 70.79" style="fill:#4b4b4b"/><path d="M162.81,162.2c15.26,0,27.63,12,27.63,26.9a26.36,26.36,0,0,1-2.19,10.51,24.61,24.61,0,0,0,5.09-14.87c0-14.86-13.67-26.91-30.53-26.91s-30.54,12-30.54,26.91a24.56,24.56,0,0,0,5.1,14.87,26.19,26.19,0,0,1-2.19-10.51C135.18,174.24,147.55,162.2,162.81,162.2Z" style="fill:#404244"/><rect x="109.01" y="173.83" width="106.15" height="98.88" rx="18.9" style="fill:#4b4b4b"/><path d="M193.44,179H130.72a17.35,17.35,0,0,0-17.35,17.35v17.35h.07a17.34,17.34,0,0,0,17.28,16h62.72a17.35,17.35,0,0,0,17.29-16h.06V196.36A17.35,17.35,0,0,0,193.44,179Z" style="fill:#585658"/><path d="M280.2,169H182.14a2.81,2.81,0,0,0-2.81,2.8v6.21a2.81,2.81,0,0,0,2.81,2.8h2.44l5.25,91.86h81.36l5.25-91.86h3.76a2.81,2.81,0,0,0,2.8-2.8v-6.21A2.81,2.81,0,0,0,280.2,169Z" style="fill:#2e5b71"/><rect x="192.46" y="180.85" width="13.12" height="45.93" style="fill:#587b8e"/><rect x="208.2" y="180.85" width="13.12" height="45.93" style="fill:#587b8e"/><polygon points="189.83 226.78 187.21 226.78 184.58 180.85 189.83 180.85 189.83 226.78" style="fill:#587b8e"/><rect x="255.44" y="180.85" width="13.12" height="45.93" transform="translate(524.01 407.63) rotate(-180)" style="fill:#587b8e"/><rect x="239.7" y="180.85" width="13.12" height="45.93" transform="translate(492.51 407.63) rotate(-180)" style="fill:#587b8e"/><polygon points="271.19 226.78 273.81 226.78 276.44 180.85 271.19 180.85 271.19 226.78" style="fill:#587b8e"/><rect x="223.95" y="180.85" width="13.12" height="45.93" style="fill:#587b8e"/></g></g></svg>