<svg xmlns="http://www.w3.org/2000/svg" viewBox="0 0 282.42 272"><g id="Calque_2" data-name="Calque 2"><g id="ToExport"><path d="M265.06,99.54a12.73,12.73,0,0,1-12.74-12.73h0V12.73h0A12.73,12.73,0,0,1,265.06,0h0V99.54Z" style="fill:#2e5b71"/><path d="M152.2,138.89H258.69a12.73,12.73,0,0,1,12.73,12.74h-132A12.73,12.73,0,0,1,152.2,138.89Z" style="fill:#2e5b71"/><path d="M273.16,272h9.26l-23.9-105.36c14.43-1.4,21.77-10.31,21.77-26.59V47.46h-2.5V12.73h0A12.73,12.73,0,0,0,265.06,0h0V99.54h0a12.7,12.7,0,0,0,10.23-5.18v45.69c0,5.29-.7,11.56-4.68,16a12.63,12.63,0,0,0,.81-4.44h-132a12.73,12.73,0,0,0,12.73,12.73h1.74V272h9.26V164.36h85.54Z" style="fill:#4b4b4b"/><rect y="55.56" width="232.65" height="15.05" transform="translate(232.65 126.16) rotate(-180)" style="fill:#fefeff"/><polygon points="199.08 70.6 33.57 70.6 13.89 70.6 13.89 272 33.57 272 33.57 113.43 199.08 113.43 199.08 272 218.76 272 218.76 70.6 199.08 70.6" style="fill:#4b4b4b"/><path d="M212.23,193c-.26-15.13-10-28.18-24.2-34.61v-3.84h0c-.71-20.78-39.08-20.77-39.79,0h0v3.84C134.06,164.85,124.28,177.9,124,193h0V257c0,8.31,8,15,17.95,15H194.3c9.92,0,17.95-6.73,17.95-15V193Zm-29.39-36.6a49.53,49.53,0,0,0-29.42,0C151.93,139.23,184.33,139.24,182.84,156.43Z" style="fill:#428e69"/><path d="M207.05,195.39c-1.9-45.21-76-45.17-77.84,0h0c2.95,75.24-17.88,70.17,62,69.68,8.75,0,15.84-5.94,15.84-13.27V195.39Zm-15.83,35.48v-.22H145v.22a17.11,17.11,0,0,0-12.38,5c0-.24,0-40.22,0-40.43.3-17.24,16.21-31.27,35.46-31.27s35.15,14,35.46,31.27c0,.2,0,40.2,0,40.43A17.09,17.09,0,0,0,191.22,230.87Z" style="fill:#337c56"/><path d="M27,40v0a4.19,4.19,0,0,0-.5,0,7.5,7.5,0,0,0,0,15,4.19,4.19,0,0,0,.5,0v0H88V40Z" style="fill:#c68442"/><path d="M63,43v0A4.48,4.48,0,0,0,63,52v0H88V43Z" style="fill:#fefeff"/></g></g></svg>