<svg xmlns="http://www.w3.org/2000/svg" viewBox="0 0 282.42 272"><g id="Calque_2" data-name="Calque 2"><g id="ToExport"><path d="M171,199.52c-.24-13.88-9.21-25.87-22.22-31.76v-3.53h0c-.65-19.07-35.87-19.06-36.52,0h0v3.53c-13,5.89-22,17.88-22.22,31.76h0v58.67c0,7.63,7.38,13.81,16.47,13.81h48.06c9.09,0,16.47-6.18,16.47-13.81V199.52Zm-27-33.59a45.37,45.37,0,0,0-27,0C115.63,150.15,145.37,150.15,144,165.93Z" style="fill:#4b728a"/><path d="M166.22,201.69c-1.74-41.5-69.71-41.47-71.44,0h0c2.71,69.05-16.41,64.4,56.94,63.95,8,0,14.54-5.46,14.54-12.18V201.69ZM151.7,234.25v-.2H109.3v.2a15.65,15.65,0,0,0-11.36,4.59c0-.22,0-36.92,0-37.11.27-15.82,14.87-28.7,32.54-28.7s32.27,12.88,32.54,28.7c.05.19,0,36.9,0,37.11A15.65,15.65,0,0,0,151.7,234.25Z" style="fill:#2e5b71"/><path d="M265.06,99.54a12.73,12.73,0,0,1-12.74-12.73h0V12.73h0A12.73,12.73,0,0,1,265.06,0h0V99.54Z" style="fill:#c68442"/><path d="M152.2,138.89H258.69a12.73,12.73,0,0,1,12.73,12.74h-132A12.73,12.73,0,0,1,152.2,138.89Z" style="fill:#c68442"/><path d="M273.16,272h9.26l-23.9-105.36c14.43-1.4,21.77-10.31,21.77-26.59V47.46h-2.5V12.73h0A12.73,12.73,0,0,0,265.06,0h0V99.54h0a12.7,12.7,0,0,0,10.23-5.18v45.69c0,5.29-.7,11.56-4.68,16a12.63,12.63,0,0,0,.81-4.44h-132a12.73,12.73,0,0,0,12.73,12.73h1.74V272h9.26V164.36h85.54Z" style="fill:#4b4b4b"/><rect y="55.56" width="232.65" height="15.05" transform="translate(232.65 126.16) rotate(-180)" style="fill:#fefeff"/><path d="M124.6,55.5s-.07,3.68,2.93,3.68,6.07-2.68,9-1.84,7.52.48,7.52-1.84Z" style="fill:#4b728a"/><path d="M184.45,55.5C185,58,191,59,196,58s5,2,8,3,9.51,1,10.25-5.5Z" style="fill:#4b728a"/><path d="M24.45,55c.79,1.67,9.35,2.34,16.49,1.67s7.14,1.34,11.42,2S65.93,59.34,67,55Z" style="fill:#4b728a"/><polygon points="199.08 70.6 33.57 70.6 13.89 70.6 13.89 272 33.57 272 33.57 113.43 199.08 113.43 199.08 272 218.76 272 218.76 70.6 199.08 70.6" style="fill:#4b4b4b"/><path d="M159.46,138.89S162,144,170,142c0,0,.91,3.26,8,3.26s9.49-6.37,9.49-6.37Z" style="fill:#4b728a"/><path d="M252.32,71.93S256,72,256,69s-2.68-6.07-1.84-9,.49-7.52-1.84-7.52Z" style="fill:#4b728a"/><path d="M223.65,139c0-.89.35-2.89,3.35-2.89,0,0,4-3,8,0,0,0,4.42-.22,4.21,2.89Z" style="fill:#c161c1"/><path d="M66.19,40.9l-.5,0v0h-51v15h51v0c.16,0,.33,0,.5,0a7.5,7.5,0,0,0,0-15Z" style="fill:#ec7756"/><path d="M66,43.9c-.12,0-.23,0-.35,0v0H14.69v9h51v0c.12,0,.23,0,.35,0a4.5,4.5,0,0,0,0-9Z" style="fill:#fefeff"/><path d="M108.16,40.92a3.71,3.71,0,0,0-.47-.16v0L60.19,22.19l-5.46,14,47.51,18.55v0c.15.07.3.15.46.21a7.5,7.5,0,0,0,5.45-14Z" style="fill:#428e69"/><path d="M106.89,43.64c-.12,0-.23-.06-.34-.1v0L59.1,25l-3.28,8.39L103.29,51.9v0c.11,0,.2.12.31.16a4.5,4.5,0,1,0,3.28-8.38Z" style="fill:#fefeff"/></g></g></svg>