<svg xmlns="http://www.w3.org/2000/svg" viewBox="0 0 209.81 183.45"><g id="Calque_2" data-name="Calque 2"><g id="BoiteEnigme"><ellipse cx="106.25" cy="26.59" rx="5.61" ry="4.63" transform="translate(23.35 98.17) rotate(-54.86)" style="fill:#4b728a"/><ellipse cx="145.32" cy="53.26" rx="58.15" ry="20.96" style="fill:#fff"/><path d="M87.17,53.26l10.9,53.35c0,11.57,21.16,21,47.25,21s47.25-9.38,47.25-21l10.91-53.35Z" style="fill:#eab9e8"/><path d="M143.39,79.37A129.87,129.87,0,0,0,196.21,68.5c12.72-5.71,18.17-17.14,9.08-26.67s-14.53-19-25.44-26.67S161.68,3.73,147.14,3.73,116.25,11.35,110.79,19,98.07,32.31,90.8,38s-18.17,23.49,0,30.8S121.46,79.37,143.39,79.37Z" style="fill:#c68442"/><ellipse cx="102.62" cy="47.55" rx="5.69" ry="4.57" transform="translate(27.56 132.15) rotate(-73.29)" style="fill:#4b728a"/><ellipse cx="155.32" cy="45.64" rx="5.31" ry="6.67" transform="translate(-4.83 21.99) rotate(-7.97)" style="fill:#4b728a"/><ellipse cx="175.31" cy="13.26" rx="5.45" ry="6.5" transform="translate(42.58 128.54) rotate(-45.3)" style="fill:#4b728a"/><ellipse cx="194.49" cy="50.45" rx="4.61" ry="6.51" transform="translate(18.98 148.26) rotate(-43.67)" style="fill:#4b728a"/><path d="M184.6,18.88a57.08,57.08,0,0,0-4.75-3.72C169,7.54,161.68,3.73,147.14,3.73S116.25,11.35,110.79,19a57.47,57.47,0,0,1-5.55,6.58,72,72,0,0,0,14.93,7.78C145.9,43.09,172.48,36.53,184.6,18.88Z" style="fill:#d18f54"/><ellipse cx="134.87" cy="13.84" rx="6.4" ry="4.14" transform="translate(4.59 51.38) rotate(-21.93)" style="fill:#4b728a"/><path d="M127.49,102c0-12.68-28.54-23-63.75-23S0,89.33,0,102a8.83,8.83,0,0,0,.69,3.37L12,160.48c0,12.69,23.19,23,51.79,23s51.8-10.28,51.8-23l11.26-55.1A8.83,8.83,0,0,0,127.49,102Z" style="fill:#edcaed"/><path d="M84.7,32.27h0a28.87,28.87,0,0,1-3-5.43C75.7,12.22,63.74-2.4,63.74.33c0,12.91.49,33.86-16.2,43.45h0C73.19,46.12,84.7,32.27,84.7,32.27Z" style="fill:#ec7756"/><path d="M103.59,70.69c2.17-12.53-2.77-20.09-8.68-26.74-18.64,29.63-69,26.74-69,26.74C4,74.87,5.8,97.84,5.8,97.84a8,8,0,0,0,.32,2.21C91.22,108.35,103.59,70.69,103.59,70.69Z" style="fill:#ec7756"/><path d="M77.05,118.16c25.59-2.17,44.64-10.44,44.64-20.32,1.41-8.48-.21-14.33-3-18.35C109.4,99.08,93.08,111,77.05,118.16Z" style="fill:#ec7756"/><path d="M118.72,79.49c-5.39-7.88-15.13-8.8-15.13-8.8S91.22,108.35,6.12,100.05c3.07,10.49,27.69,18.67,57.62,18.67,4.58,0,9-.2,13.31-.56C93.08,111,109.4,99.08,118.72,79.49Z" style="fill:#cdae62"/><path d="M94.91,44C91.42,40,87.6,36.4,84.7,32.27h0S73.19,46.12,47.55,43.78h0a32.22,32.22,0,0,1-3.72,1.85C23.9,54,25.9,70.69,25.9,70.69S76.27,73.58,94.91,44Z" style="fill:#cdae62"/></g></g></svg>