<svg xmlns="http://www.w3.org/2000/svg" viewBox="0 0 410.54 119"><g id="Calque_2" data-name="Calque 2"><g id="ToExport"><rect x="336.54" y="45" width="119" height="29" transform="translate(336.54 455.54) rotate(-90)" style="fill:#2e5b71"/><rect x="381.54" y="38" width="29" height="43" style="fill:#fff"/><circle cx="396.54" cy="18" r="4" style="fill:#fff"/><rect x="272.54" y="45" width="119" height="29" transform="translate(272.54 391.54) rotate(-90)" style="fill:#2e5b71"/><rect x="317.54" y="38" width="29" height="43" style="fill:#fff"/><circle cx="332.54" cy="18" r="4" style="fill:#fff"/><rect x="301.54" y="45" width="119" height="29" transform="translate(301.54 420.54) rotate(-90)" style="fill:#c68442"/><rect x="346.54" y="38" width="29" height="43" style="fill:#fff"/><circle cx="361.54" cy="18" r="4" style="fill:#fff"/><rect x="198.54" y="90" width="119" height="29" transform="translate(516.08 209) rotate(180)" style="fill:#c68442"/><rect x="243.54" y="83" width="29" height="43" transform="translate(153.54 362.54) rotate(-90)" style="fill:#fff"/><circle cx="216.54" cy="104" r="4" style="fill:#fff"/><rect x="219.05" y="37.74" width="92.37" height="51.73" style="fill:#ec7756"/><rect x="131.98" y="86.55" width="60.35" height="32.02" style="fill:#4b728a"/><rect x="131.98" y="75.47" width="64.05" height="11.08" style="fill:#2e5b71"/><rect x="166.47" y="102.56" width="20.94" height="12.32" style="fill:#fff"/><rect x="7.68" y="38.55" width="60.35" height="32.02" transform="translate(75.7 109.13) rotate(-180)" style="fill:#4b728a"/><rect x="3.98" y="27.47" width="64.05" height="11.08" transform="translate(72.01 66.02) rotate(-180)" style="fill:#2e5b71"/><rect x="12.6" y="54.56" width="20.94" height="12.32" transform="translate(46.14 121.44) rotate(-180)" style="fill:#fff"/><rect x="5.98" y="86.55" width="60.35" height="32.02" style="fill:#ec7756"/><rect x="142.98" y="43.55" width="60.35" height="32.02" style="fill:#428e69"/><rect x="142.98" y="32.47" width="64.05" height="11.08" style="fill:#337251"/><rect x="177.47" y="59.56" width="20.94" height="12.32" style="fill:#fff"/><rect x="236.91" y="53.13" width="54.19" height="22.17" style="fill:#fff"/><rect x="214.12" y="22.96" width="97.3" height="14.78" style="fill:#c46d41"/><rect x="77.54" y="114" width="65" height="5" style="fill:#2d2d2d"/><polygon points="108.54 97 96.54 97 86.54 114 108.54 114 108.54 97" style="fill:#2d2d2d"/><rect x="103.12" y="19" width="14.67" height="52" transform="translate(-8.41 35.22) rotate(-17.46)" style="fill:#e0e0e0"/><rect x="98.09" y="8.99" width="6.77" height="17.25" transform="translate(-0.61 31.26) rotate(-17.46)" style="fill:#e0e0e0"/><path d="M110,92.5a24,24,0,0,1-7.1-46.93L99.74,35.4a35,35,0,1,0,20,67.09l-4.32-10.6A24.44,24.44,0,0,1,110,92.5Z" style="fill:#666"/><rect x="106.76" y="83.87" width="31.76" height="5.37" transform="translate(-20.32 40.79) rotate(-17.46)" style="fill:#e0e0e0"/><path d="M41.89,82H2.27s5.22,22,15.38,37H66.09c10.16-15,15.38-37,15.38-37Z" style="fill:#bababa"/><path d="M2.27,82s5.22,22,15.38,37H36.84c-3.44-15-5.21-37-5.21-37Z" style="fill:#c9c9c9"/><path d="M2.27,82s-5.11-4.69,0-10,0-16.81,7.66-18.08S20.14,45,30.36,46.23s19.15-7.66,29.36,2.55S75,55.16,76.32,64.1s9,12.77,5.15,17.88Z" style="fill:#73a230"/><path d="M9.78,75.49A5.22,5.22,0,0,0,10,73.1c-.06-.82-.21-1.65-.33-2.5a19.18,19.18,0,0,1-.29-5.4,8.9,8.9,0,0,1,.86-2.85A7.79,7.79,0,0,1,12.22,60a9,9,0,0,1,2.55-1.47,16.32,16.32,0,0,1,2.68-.8,30.07,30.07,0,0,0,4.7-1.44,32.13,32.13,0,0,0,4.39-2.34,17.73,17.73,0,0,1,2.37-1.3,6.59,6.59,0,0,1,2.81-.59,11.45,11.45,0,0,1,5.09,1.67l-.14.34a13.2,13.2,0,0,0-4.88-.69,8.85,8.85,0,0,0-4.16,2.18,26.26,26.26,0,0,1-4.52,2.86A25.33,25.33,0,0,1,18,60.2,10.83,10.83,0,0,0,13.84,62a5.93,5.93,0,0,0-2.14,3.58,26.43,26.43,0,0,0-.36,4.91,22.09,22.09,0,0,1-.2,2.66,5.08,5.08,0,0,1-1.06,2.54Z" style="fill:#3d7616"/><path d="M73,75.07A15.3,15.3,0,0,1,70.69,72c-.66-1.09-1.28-2.19-2-3.25a22,22,0,0,0-2.16-3,8.65,8.65,0,0,0-2.7-2.17,5.33,5.33,0,0,0-3.22-.42,9.73,9.73,0,0,0-3.21,1.23c-1,.59-2.14,1.38-3.33,2a19,19,0,0,1-3.76,1.36,22.35,22.35,0,0,1-7.93.45c-2.6-.27-5.14-.92-7.52-1.3a6.34,6.34,0,0,0-3,0l-.26.14-.45.27c-.29.17-.59.32-.89.47-.61.29-1.22.56-1.83.79a25.35,25.35,0,0,1-7.61,1.51l-.09-.46c2.34-1,4.68-1.9,6.85-3,.54-.28,1.08-.55,1.59-.86.25-.15.51-.3.74-.47l.37-.24c.14-.09.38-.22.56-.32a5.54,5.54,0,0,1,2.36-.48,12.46,12.46,0,0,1,2.08.19c2.61.45,5,1.09,7.41,1.37a21.41,21.41,0,0,0,7.15-.23,16.84,16.84,0,0,0,3.39-1.12c1.12-.49,2.07-1.08,3.29-1.76a11.64,11.64,0,0,1,3.9-1.29,7,7,0,0,1,4.15.79,9.43,9.43,0,0,1,3,2.73,23.81,23.81,0,0,1,2,3.32c.59,1.13,1.12,2.28,1.69,3.41a15.5,15.5,0,0,0,1.93,3.18Z" style="fill:#3d7616"/><path d="M47.54,52.64a14,14,0,0,1,4.4-.89A20,20,0,0,1,56.5,52a9.3,9.3,0,0,1,4.3,1.84c.56.45,1.11.91,1.67,1.33a7.63,7.63,0,0,0,.87.57c.28.15.62.32.79.07h.12c0,.26-.22.47-.43.52a2.09,2.09,0,0,1-.65,0A5.53,5.53,0,0,1,62,56.12a13.85,13.85,0,0,1-2.12-.92,33.75,33.75,0,0,0-3.8-1.5,22.1,22.1,0,0,0-4.16-.86,19.62,19.62,0,0,0-2.16-.16,13.37,13.37,0,0,0-2.19.07Z" style="fill:#3d7616"/><ellipse cx="20.46" cy="79.09" rx="8.82" ry="5.57" style="fill:#73a230"/><ellipse cx="64.08" cy="81.63" rx="6.96" ry="4.4" style="fill:#73a230"/><ellipse cx="55.73" cy="83.98" rx="6.96" ry="4.4" style="fill:#73a230"/><ellipse cx="47.37" cy="82.22" rx="3.25" ry="2.05" style="fill:#73a230"/><ellipse cx="41.8" cy="50.78" rx="1.86" ry="5.57" style="fill:#fff"/><ellipse cx="43.48" cy="55.43" rx="1.86" ry="4.12" transform="translate(-26.94 53.49) rotate(-50.32)" style="fill:#fff"/><ellipse cx="38.27" cy="54.82" rx="4.77" ry="1.86" transform="translate(-22.28 26.48) rotate(-30)" style="fill:#fff"/><ellipse cx="43.16" cy="51.53" rx="3.51" ry="1.03" transform="translate(-23.97 48.14) rotate(-47.16)" style="fill:#fff"/><ellipse cx="43.16" cy="52.46" rx="3.51" ry="1.03" style="fill:#fff"/><ellipse cx="39.45" cy="52.46" rx="3.51" ry="1.03" style="fill:#fff"/><ellipse cx="39.45" cy="51.53" rx="1.03" ry="3.51" transform="translate(-21.53 29.33) rotate(-32.56)" style="fill:#fff"/><ellipse cx="40.86" cy="55.65" rx="3.06" ry="0.51" transform="translate(-20.17 87.92) rotate(-81.59)" style="fill:#fff"/><ellipse cx="70.81" cy="70.79" rx="4.22" ry="1.86" transform="matrix(0.31, -0.95, 0.95, 0.31, -18.49, 116.06)" style="fill:#fff"/><ellipse cx="71.31" cy="74.66" rx="1.54" ry="3.79" transform="translate(-31.76 68.67) rotate(-42.99)" style="fill:#fff"/><ellipse cx="66.49" cy="72.6" rx="4.54" ry="1.48" transform="translate(-4.61 4.51) rotate(-3.75)" style="fill:#fff"/><ellipse cx="71.93" cy="71.75" rx="3.1" ry="0.89" transform="translate(-19.9 28.29) rotate(-19.6)" style="fill:#fff"/><ellipse cx="71.71" cy="72.42" rx="0.78" ry="3.52" transform="translate(-19.42 118.04) rotate(-71.87)" style="fill:#fff"/><ellipse cx="68.17" cy="71.26" rx="0.78" ry="3.52" transform="translate(-20.76 113.88) rotate(-71.87)" style="fill:#fff"/><ellipse cx="68.39" cy="70.59" rx="0.93" ry="2.95" transform="translate(-22.62 33.48) rotate(-23.72)" style="fill:#fff"/><ellipse cx="68.76" cy="74" rx="2.34" ry="0.51" transform="translate(-29.48 97.52) rotate(-60.57)" style="fill:#fff"/><ellipse cx="16.78" cy="67.6" rx="1.07" ry="2.44" transform="translate(-6.51 1.96) rotate(-5.6)" style="fill:#fff"/><ellipse cx="17.94" cy="69.52" rx="0.89" ry="2.18" transform="translate(-53.01 58.51) rotate(-66.71)" style="fill:#fff"/><ellipse cx="14.92" cy="69.55" rx="2.62" ry="0.86" transform="translate(-30.41 14.73) rotate(-27.47)" style="fill:#fff"/><ellipse cx="17.59" cy="67.84" rx="1.79" ry="0.51" transform="translate(-41.75 30.56) rotate(-43.32)" style="fill:#fff"/><ellipse cx="17.63" cy="68.25" rx="2.03" ry="0.45" transform="translate(-6.57 2.04) rotate(-5.6)" style="fill:#fff"/><ellipse cx="15.5" cy="68.46" rx="2.03" ry="0.45" transform="translate(-6.6 1.84) rotate(-5.6)" style="fill:#fff"/><ellipse cx="15.46" cy="68.05" rx="0.54" ry="1.7" transform="translate(-45.13 33.41) rotate(-47.44)" style="fill:#fff"/><ellipse cx="16.44" cy="69.77" rx="1.35" ry="0.29" transform="translate(-54.61 79.18) rotate(-84.29)" style="fill:#fff"/></g></g></svg>