<svg xmlns="http://www.w3.org/2000/svg" viewBox="0 0 198 91"><g id="Calque_2" data-name="Calque 2"><g id="ToExport"><rect x="115" y="38" width="91" height="15" transform="translate(115 206) rotate(-90)" style="fill:#ec7756"/><rect x="145" y="38" width="91" height="15" transform="translate(145 236) rotate(-90)" style="fill:#2e5b71"/><rect x="130" y="38" width="91" height="15" transform="translate(130 221) rotate(-90)" style="fill:#428e69"/><rect x="131" y="42" width="89" height="7" transform="translate(130 221) rotate(-90)" style="fill:#fefeff"/><rect x="-8" y="38" width="91" height="15" transform="translate(-8 83) rotate(-90)" style="fill:#428e69"/><rect x="-7" y="42" width="89" height="7" transform="translate(-8 83) rotate(-90)" style="fill:#fefeff"/><rect x="7" y="38" width="91" height="15" transform="translate(7 98) rotate(-90)" style="fill:#c68442"/><rect x="8" y="42" width="89" height="7" transform="translate(7 98) rotate(-90)" style="fill:#fefeff"/><rect x="-23" y="38" width="91" height="15" transform="translate(-23 68) rotate(-90)" style="fill:#c68442"/><rect x="-38" y="38" width="91" height="15" transform="translate(-38 53) rotate(-90)" style="fill:#2e5b71"/><circle cx="77.5" cy="83.5" r="7.5" style="fill:#428e69"/><rect x="78" y="76" width="61" height="15" style="fill:#428e69"/><rect x="114" y="79" width="25" height="9" transform="translate(253 167) rotate(180)" style="fill:#fefeff"/><circle cx="114.5" cy="83.5" r="4.5" style="fill:#fefeff"/></g></g></svg>