<svg xmlns="http://www.w3.org/2000/svg" viewBox="0 0 197.54 91"><g id="Calque_2" data-name="Calque 2"><g id="ToExport"><rect x="-8" y="38" width="91" height="15" transform="translate(-8 83) rotate(-90)" style="fill:#c68442"/><rect x="-23" y="38" width="91" height="15" transform="translate(-23 68) rotate(-90)" style="fill:#2e5b71"/><rect x="-38" y="38" width="91" height="15" transform="translate(-38 53) rotate(-90)" style="fill:#428e69"/><rect x="-37" y="42" width="89" height="7" transform="translate(-38 53) rotate(-90)" style="fill:#fefeff"/><circle cx="82.5" cy="83.5" r="7.5" style="fill:#c68442"/><rect x="83" y="76" width="61" height="15" style="fill:#c68442"/><rect x="119" y="79" width="25" height="9" transform="translate(263 167) rotate(180)" style="fill:#fefeff"/><circle cx="119.5" cy="83.5" r="4.5" style="fill:#fefeff"/><rect x="136.54" y="45.45" width="51" height="15" transform="translate(324.09 105.89) rotate(180)" style="fill:#428e69"/><circle cx="136.04" cy="52.95" r="7.5" style="fill:#428e69"/><rect x="136.59" y="48.45" width="50.95" height="9" transform="translate(324.14 105.89) rotate(180)" style="fill:#fefeff"/><circle cx="136.24" cy="52.95" r="4.5" style="fill:#fefeff"/><rect x="146.54" y="75.45" width="51" height="15" transform="translate(344.09 165.89) rotate(-180)" style="fill:#ec7756"/><circle cx="146.04" cy="82.95" r="7.5" style="fill:#ec7756"/><rect x="146.59" y="78.45" width="50.95" height="9" transform="translate(344.14 165.89) rotate(-180)" style="fill:#fefeff"/><circle cx="146.24" cy="82.95" r="4.5" style="fill:#fefeff"/><rect x="126.54" y="60.45" width="51" height="15" style="fill:#2e5b71"/><circle cx="178.04" cy="67.95" r="7.5" style="fill:#2e5b71"/><rect x="126.54" y="63.45" width="50.95" height="9" style="fill:#fefeff"/><circle cx="177.84" cy="67.95" r="4.5" style="fill:#fefeff"/></g></g></svg>