<svg xmlns="http://www.w3.org/2000/svg" viewBox="0 0 196.31 92.6"><g id="Calque_2" data-name="Calque 2"><g id="ToExport"><rect x="143.31" y="39.6" width="91" height="15" transform="translate(141.71 235.91) rotate(-90)" style="fill:#2e5b71"/><circle cx="113.35" cy="84.55" r="7.5" style="fill:#428e69"/><rect x="113.9" y="80.05" width="50.95" height="9" transform="translate(278.75 169.09) rotate(180)" style="fill:#fefeff"/><circle cx="113.55" cy="84.55" r="4.5" style="fill:#fefeff"/><path d="M119.34,89.05H113.9v0h-.05c-.1,0-.19,0-.3,0a4.5,4.5,0,0,1,0-9,2.77,2.77,0,0,1,.3,0h.05v0H129a.82.82,0,0,0-.68-.45c-.77,0-1-.59-1.91-.86a3.9,3.9,0,0,0-1.09-.14c-1.31,0-.91-.43-.47-1l-.75-.55H113.85v0l-.5,0a7.5,7.5,0,0,0,0,15c.17,0,.34,0,.5,0v0h51v-3Z" style="fill:#428e69"/><path d="M157.31,78.6c-1-1-5,0-5.9-.46a14.23,14.23,0,0,0-2.8-1.09H124.09l.75.55c-.44.57-.84,1,.47,1a3.9,3.9,0,0,1,1.09.14c.95.27,1.14.86,1.91.86a.82.82,0,0,1,.68.45h33.23C163.13,79.49,158.31,79.6,157.31,78.6Z" style="fill:#337c56"/><circle cx="154.35" cy="69.55" r="7.5" style="fill:#428e69"/><rect x="102.85" y="65.05" width="50.95" height="9" style="fill:#fefeff"/><circle cx="154.15" cy="69.55" r="4.5" style="fill:#fefeff"/><path d="M148.36,74.05h5.44v0h0c.1,0,.2,0,.3,0a4.5,4.5,0,0,0,0-9c-.1,0-.2,0-.3,0h0v0H138.71a.84.84,0,0,1,.69-.45c.77,0,.95-.59,1.91-.86a3.9,3.9,0,0,1,1.09-.14c1.3,0,.9-.43.47-1l.75-.55h10.23v0l.5,0a7.5,7.5,0,0,1,0,15c-.17,0-.33,0-.5,0v0h-51v-3Z" style="fill:#2e5b71"/><path d="M126,63.6c.53-1,2.65,0,3.13-.46a6.28,6.28,0,0,1,1.49-1.09h13l-.4.55c.23.57.44,1-.25,1a1.18,1.18,0,0,0-.58.14c-.51.27-.6.86-1,.86-.16,0-.27.19-.37.45H123.37C122.88,64.49,125.45,64.6,126,63.6Z" style="fill:#234d5e"/><polygon points="165.31 92.6 165.31 1.6 169.22 1.6 180.31 1.6 180.31 92.6 165.31 92.6" style="fill:#ec7756"/><path d="M169.31,15.6c-.66,4-2.53,12.89-2.26,16.45s-.74,14.44-1.74,18V1.6h3.91S170.31,9.6,169.31,15.6Z" style="fill:#fefeff"/><polygon points="16.88 92.2 0 2.78 3.84 2.06 14.74 0 31.62 89.42 16.88 92.2" style="fill:#2e5b71"/><path d="M6.53,15.8c.08,4-.1,13.13.82,16.58s2,14.33,1.64,18L0,2.78l3.84-.72S6.4,9.72,6.53,15.8Z" style="fill:#fefeff"/><rect x="-14.69" y="38.6" width="91" height="15" transform="translate(-8.78 84.93) rotate(-100.69)" style="fill:#c68442"/><rect x="0.31" y="38.6" width="91" height="15" transform="translate(9 99.67) rotate(-100.69)" style="fill:#ec7756"/><rect x="1.31" y="42.6" width="89" height="7" transform="translate(9 99.67) rotate(-100.69)" style="fill:#fefeff"/><rect x="16.31" y="42.6" width="89" height="7" transform="translate(26.79 114.41) rotate(-100.69)" style="fill:#fefeff"/><path d="M71.82,64c-1.77-2.78-3.74-5.11-4.51-7.43-.7-2.1-.42-5.17-.88-8.2l-3.25-8.6L72.5,89.18l-6.88,1.3L49.12,3l.15,0,2-.38c-.32-.3-.63-.58-.94-.84L48.92,2,45,2.78,61.88,92.2l14.74-2.78Z" style="fill:#2e5b71"/></g></g></svg>