<svg xmlns="http://www.w3.org/2000/svg" viewBox="0 0 197.46 92.6"><g id="Calque_2" data-name="Calque 2"><g id="ToExport"><rect y="77.05" width="51" height="15" style="fill:#ec7756"/><circle cx="51.5" cy="84.55" r="7.5" style="fill:#ec7756"/><rect y="80.05" width="50.95" height="9" style="fill:#fefeff"/><circle cx="51.3" cy="84.55" r="4.5" style="fill:#fefeff"/><rect x="129.46" y="39.6" width="91" height="15" transform="translate(127.85 222.06) rotate(-90)" style="fill:#428e69"/><rect x="130.46" y="43.6" width="89" height="7" transform="translate(127.85 222.06) rotate(-90)" style="fill:#fefeff"/><rect x="144.46" y="39.6" width="91" height="15" transform="translate(142.85 237.06) rotate(-90)" style="fill:#c68442"/><rect x="145.46" y="43.6" width="89" height="7" transform="translate(142.85 237.06) rotate(-90)" style="fill:#fefeff"/><rect x="114.46" y="39.6" width="91" height="15" transform="translate(112.85 207.06) rotate(-90)" style="fill:#c68442"/><rect x="91.46" y="38.6" width="91" height="15" transform="translate(66.25 172.13) rotate(-79.31)" style="fill:#2e5b71"/><rect x="76.46" y="38.6" width="91" height="15" transform="translate(54.04 157.39) rotate(-79.31)" style="fill:#c68442"/><rect x="61.46" y="38.6" width="91" height="15" transform="translate(41.82 142.65) rotate(-79.31)" style="fill:#2e5b71"/><rect x="62.46" y="42.6" width="89" height="7" transform="translate(41.82 142.65) rotate(-79.31)" style="fill:#fefeff"/></g></g></svg>