<svg xmlns="http://www.w3.org/2000/svg" viewBox="0 0 198.35 93.6"><g id="Calque_2" data-name="Calque 2"><g id="ToExport"><rect x="124.17" y="32.14" width="85.25" height="15" transform="translate(35.08 149.38) rotate(-53.17)" style="fill:#ec7756"/><rect x="146.54" y="78.05" width="51" height="15" transform="translate(344.09 171.09) rotate(180)" style="fill:#428e69"/><circle cx="146.04" cy="85.55" r="7.5" style="fill:#428e69"/><rect x="146.59" y="81.05" width="50.95" height="9" transform="translate(344.14 171.09) rotate(180)" style="fill:#fefeff"/><circle cx="146.24" cy="85.55" r="4.5" style="fill:#fefeff"/><rect x="47" y="38.6" width="91" height="15" transform="translate(64.35 145.55) rotate(-100.69)" style="fill:#2e5b71"/><rect x="62" y="38.6" width="91" height="15" transform="translate(82.14 160.29) rotate(-100.69)" style="fill:#c68442"/><circle cx="22.5" cy="85.1" r="7.5" style="fill:#c68442"/><rect x="23" y="77.6" width="61" height="15" style="fill:#c68442"/><rect x="59" y="80.6" width="25" height="9" transform="translate(143 170.2) rotate(180)" style="fill:#fefeff"/><circle cx="59.5" cy="85.1" r="4.5" style="fill:#fefeff"/><rect x="31.54" y="33.05" width="51" height="15" transform="translate(114.09 81.09) rotate(180)" style="fill:#428e69"/><circle cx="31.04" cy="40.55" r="7.5" style="fill:#428e69"/><rect x="31.59" y="36.05" width="50.95" height="9" transform="translate(114.14 81.09) rotate(180)" style="fill:#fefeff"/><circle cx="31.24" cy="40.55" r="4.5" style="fill:#fefeff"/><rect x="23.54" y="63.05" width="51" height="15" style="fill:#ec7756"/><circle cx="75.04" cy="70.55" r="7.5" style="fill:#ec7756"/><rect x="23.54" y="66.05" width="50.95" height="9" style="fill:#fefeff"/><circle cx="74.84" cy="70.55" r="4.5" style="fill:#fefeff"/><rect x="21.54" y="48.05" width="51" height="15" style="fill:#2e5b71"/><circle cx="73.04" cy="55.55" r="7.5" style="fill:#2e5b71"/><rect x="21.54" y="51.05" width="50.95" height="9" style="fill:#fefeff"/><circle cx="72.84" cy="55.55" r="4.5" style="fill:#fefeff"/><rect x="77" y="38.6" width="91" height="15" transform="translate(99.92 175.03) rotate(-100.69)" style="fill:#2e5b71"/><rect x="-38" y="40.6" width="91" height="15" transform="translate(-40.6 55.6) rotate(-90)" style="fill:#2e5b71"/><rect x="-37" y="44.6" width="89" height="7" transform="translate(-40.6 55.6) rotate(-90)" style="fill:#fefeff"/><rect x="78" y="42.6" width="89" height="7" transform="translate(99.92 175.03) rotate(-100.69)" style="fill:#fefeff"/></g></g></svg>