<svg xmlns="http://www.w3.org/2000/svg" viewBox="0 0 198 91"><g id="Calque_2" data-name="Calque 2"><g id="ToExport"><rect x="145" y="38" width="91" height="15" transform="translate(145 236) rotate(-90)" style="fill:#c68442"/><rect x="100" y="38" width="91" height="15" transform="translate(100 191) rotate(-90)" style="fill:#ec7756"/><rect x="-38" y="38" width="91" height="15" transform="translate(-38 53) rotate(-90)" style="fill:#c68442"/><rect x="130" y="38" width="91" height="15" transform="translate(130 221) rotate(-90)" style="fill:#2e5b71"/><rect x="115" y="38" width="91" height="15" transform="translate(115 206) rotate(-90)" style="fill:#428e69"/><rect x="116" y="42" width="89" height="7" transform="translate(115 206) rotate(-90)" style="fill:#fefeff"/><rect x="27.54" y="75.45" width="51" height="15" transform="translate(106.09 165.89) rotate(180)" style="fill:#428e69"/><circle cx="27.04" cy="82.95" r="7.5" style="fill:#428e69"/><rect x="27.59" y="78.45" width="50.95" height="9" transform="translate(106.14 165.89) rotate(180)" style="fill:#fefeff"/><circle cx="27.24" cy="82.95" r="4.5" style="fill:#fefeff"/><rect x="29.54" y="60.45" width="51" height="15" style="fill:#ec7756"/><circle cx="81.04" cy="67.95" r="7.5" style="fill:#ec7756"/><rect x="29.54" y="63.45" width="50.95" height="9" style="fill:#fefeff"/><circle cx="80.84" cy="67.95" r="4.5" style="fill:#fefeff"/><rect x="23.54" y="45.45" width="51" height="15" style="fill:#2e5b71"/><circle cx="75.04" cy="52.95" r="7.5" style="fill:#2e5b71"/><rect x="23.54" y="48.45" width="50.95" height="9" style="fill:#fefeff"/><circle cx="74.84" cy="52.95" r="4.5" style="fill:#fefeff"/></g></g></svg>