<svg xmlns="http://www.w3.org/2000/svg" viewBox="0 0 133.97 132.38"><g id="Calque_2" data-name="Calque 2"><g id="FeuilleEncre"><path d="M67.72,0C55.23,0,44.55,2.71,34.46,8.55c-10.41,6-19.76,13.13-25.78,23.54C2.84,42.18,0,53.68,0,66.17s.73,25.22,6.57,35.31c6,10.41,16.68,17.67,27.09,23.69,10.09,5.84,21.57,7.21,34.06,7.21a63.37,63.37,0,0,0,33-9.09c10.41-6,21.67-11.68,27.69-22.09,5.84-10.09,5.58-22.53,5.58-35s-.56-24.46-6.4-34.55C121.55,21.21,113.43,11.06,103,5,92.93-.8,80.22,0,67.72,0Zm.52,130.4c-11.26,0-22.85-3.69-31.94-9-9.38-5.42-16.53-14.82-22-24.2A62.7,62.7,0,0,1,5.57,66.17c0-11.26,5.62-20.8,10.88-29.9,5.43-9.38,11.27-18.62,20.65-24C46.19,7,57,2,68.24,2a66.61,66.61,0,0,1,32.23,8.37c9.38,5.43,14.62,16.26,20,25.64,5.26,9.09,11.87,18.92,11.87,30.18s-5.79,21.56-11,30.65c-5.43,9.38-13.81,15.73-23.19,21.16C89.06,123.24,79.5,130.44,68.24,130.44Z" style="fill:#2e5b71"/><path d="M56.14,46.61c0,2.46.6,5.22.07,7.35-.61,2.51-3.73,4-4.87,5.69-1.56,2.37-3,2.93-5,2.93a5.13,5.13,0,0,1-5.09-2.81,20.46,20.46,0,0,1-2.61-6.3,31.37,31.37,0,0,1-1.24-6.86,33.82,33.82,0,0,1,.72-7c.55-2.53.92-5.21,2-7,1.46-2.47,4.21-2.21,6.26-2.21s4.44-.06,6,2.38a22.91,22.91,0,0,1,2.79,6.69A31.09,31.09,0,0,1,56.14,46.61Z" style="fill:#2e5b71"/><path d="M93.8,46.61c0,2.47.59,4.73,0,6.89-.64,2.53-1,5-2.17,6.69a6.37,6.37,0,0,1-5.69,3c-2.06,0-4.6-.33-6-2.8a24.84,24.84,0,0,1-2-6.82,35.74,35.74,0,0,1-.94-7c0-2.37-.29-4.85.12-6.83a20.26,20.26,0,0,1,2.81-6.39C81.31,31.18,83.92,31,86,31s2.72,1.63,4.31,3.78c1.19,1.59,4.95,2.33,5.6,4.78C96.42,41.52,93.8,44.19,93.8,46.61Z" style="fill:#2e5b71"/><path d="M28.64,99.31c2,2,2.63,1.35,4.62,3.34,1.47,1.47-.21,4.51,1.85,4.18,2.84-.45,3.93-1.31,4.2-4.17.22-2.37-3.85-.94-2.94-3.14,8.53-9.2,20.6-14.4,34.71-14.4s27.48,4.48,36,13.51c.93,2.4-3.16,1.36-3,3.92.16,2.87-.4,4,2.46,4.28,2.28.26,1-2.34,2.66-4,2-2,2.55-1.43,4.54-3.42,1.38-1.38,1.74-.53,1.38-2.44-.55-2.82.24-4-2.54-4.76-1.62-.43-.47,2.76-1.88,1.85-9.21-9.76-23.86-16.72-39.62-16.72S41.83,86.72,32.63,96.64c-1.59,1-1.58-4.12-3.41-3.73-2.81.6-4.22.67-5.3,3.34C23.1,98.29,27.11,97.78,28.64,99.31Z" style="fill:#2e5b71"/></g></g></svg>