<svg xmlns="http://www.w3.org/2000/svg" viewBox="0 0 140.38 195.68"><g id="Calque_2" data-name="Calque 2"><g id="FeuilleEncre"><path d="M140.21,52.35A67.72,67.72,0,0,0,135,40C122.53,17.18,100.29,0,72.49,0,32,0,0,33.5,0,74a71.13,71.13,0,0,0,43.48,66.2c6.89,8.71,13.07,18.93,12,30.26-1.57,16.44-1.46,20.19.78,23.09s12.52,5.87,11-13.7c-1.54-19.26-16.72-29.42-9.72-35.33a76.08,76.08,0,0,0,15,1.49c15.29,0,29.12-3.85,40.88-11.85a73.06,73.06,0,0,0,15.82-13.87c.17-.24,2,1,2.18.77,0,0-2.2-2-2.19-2,.28-.31-.38-1-.2-1.27,3.41-5.19-8.56-3-10.87-.4l1.12,1.07c-4.62,4.85-11.47,7.32-17.43,10.51-8.81,4.7-18.62,9.38-29.31,9.38-34.69,0-59.95-29.65-59.95-64.34a70,70,0,0,1,6.67-29.92c1.15,6.13,2.13,13.23,1.43,18.37-1.17,8.61-.78,14.09,2,15.27s6.26-1.57,5.48-5.48c-.71-3.51-5.18-17.11-3.56-37.39C33.26,22.17,46.27,12.94,61.81,10c3.16.38,6,2.58,5,8.4-1.53,8.19-2.32,13-5.27,14.85-3.36,1.34-7.69,1.26-9.62,4s-.94,6.65-1.21,9.76-1.86,9.22-1.86,18.46c0,5.37-.5,5.37-.5,10.75,0,8.57,1.39,14.32,1.69,17.29a18.06,18.06,0,0,0,3.31,8.29c1.81,2.71,3.9,5.29,7.22,6.73s7.71,2,12.93,2a29.44,29.44,0,0,0,11-2.11c3.15-1.24,5.86-2.76,7.67-5A16,16,0,0,0,95.52,96c.42-2.66-1-6.75-1-12.18,0-3.1,1.44-3.1,1.44-6.19,0-4.58-1.83-7.84-2.57-10.53a10.35,10.35,0,0,0-4.35-6.56c-2.71-1.92-5.35-5.08-8.9-5.08a17.33,17.33,0,0,0-7.71,1.92,15.41,15.41,0,0,0-5.25,5.95c-.59-6.16.13-6.33.13-12.52,0-2.91,2.16-4.77,2.25-5.73s-.26-1.79.38-2.4,1.44-.47,2.43-.47a2.81,2.81,0,0,1,2.27,1.08c.68.64,2.48.78,2.56,1.72s-.63,2.64-.63,6.25C86.12,53,86.65,55,96.05,52.68c0-4.86-.56-9.84-2.06-13a17,17,0,0,0-7.44-8.11C83.34,29.92,78.93,30.85,74,31a15.84,15.84,0,0,1-1.37-11.28c.88-3.94,2-7.69,4.18-10.55,19.31,1.52,36.71,13,47.32,27.77,1.09,1.51,2.23,3.08,3.18,4.69l-1.22.7C127.75,45.45,142.07,58.94,140.21,52.35Zm-71,23.79c0-2.85.52-4.33,1.14-5.3s.94-2.77,2.28-2.77a4.67,4.67,0,0,1,3.55,2.07c.61,1-.45,3.25-.45,6,0,7.27-1,7.36-.5,14.63,0,3.58,1.85,6.79,1,7.61a7,7,0,0,1-3.6,1.48c-1.37,0-1.71-2.26-2.3-3.31a12.15,12.15,0,0,1-1.51-6.36C68.73,83.17,69.17,83.17,69.17,76.14Z" style="fill:#2e5b71"/></g></g></svg>