<svg xmlns="http://www.w3.org/2000/svg" viewBox="0 0 131.47 165.4"><g id="Calque_2" data-name="Calque 2"><g id="FeuilleEncre"><path d="M104.86,13.28C93.8,6.53,80.81,0,65.14,0S34.69,3.59,23.63,10.34C10,18.67,0,31.77,0,45.61c0,10.18,5.32,20.11,13.57,28,0,5-.35,10-1.37,12.76-2.09,5.7-2.61,11.44,0,14.31S19,104,20,96.2c.88-6.6-3.06-10.43-1.5-18.43q2.37,1.8,4.94,3.37c11.06,6.75,26,9,41.68,9,2,0,4.09,0,6.13-.06,4.64,10.45,10.29,20.92,7.17,40.54-3.65,22.95-2.09,27.65,3.13,32.86S98.26,163,93,149.92s-5.21-22.43-4.69-29.21c.47-6.13-11.42-20.36-6.38-31.13,9.67-.79,18.68-2.66,25.74-7,13.65-8.33,23.76-23.18,23.76-37S118.5,21.6,104.86,13.28Z" style="fill:#2e5b71"/></g></g></svg>