<svg xmlns="http://www.w3.org/2000/svg" viewBox="0 0 192.18 348.06"><g id="Calque_2" data-name="Calque 2"><g id="Calque_1-2" data-name="Calque 1"><rect y="16" width="192.18" height="332" style="fill:#e0e0e0"/><rect x="5" y="16" width="182.18" height="332" style="fill:#80a6ba"/><rect x="0.18" width="192" height="16" style="fill:#e0e0e0"/><rect x="0.18" y="182" width="192" height="4" style="fill:#e0e0e0"/><polygon points="117.2 182.06 187.1 70.13 187.1 16.06 135.86 16.06 32.2 182.06 117.2 182.06" style="fill:#a5bfce"/><polygon points="29.7 186.06 4.92 225.74 4.92 348.06 13.54 348.06 114.7 186.06 29.7 186.06" style="fill:#a5bfce"/><polygon points="187.1 182.06 187.1 136.27 158.51 182.06 187.1 182.06" style="fill:#a5bfce"/><polygon points="187.1 186.06 156.01 186.06 54.85 348.06 87.92 348.06 187.1 189.24 187.1 186.06" style="fill:#a5bfce"/><polygon points="187.1 231.23 114.14 348.06 130.9 348.06 187.1 258.06 187.1 231.23" style="fill:#a5bfce"/><polygon points="58.91 16.06 4.92 102.51 4.92 129.35 75.67 16.06 58.91 16.06" style="fill:#a5bfce"/><polygon points="84.7 16.06 4.92 143.82 4.92 157.24 93.08 16.06 84.7 16.06" style="fill:#a5bfce"/></g></g></svg>