<svg xmlns="http://www.w3.org/2000/svg" viewBox="0 0 411.25 125.25"><g id="Calque_2" data-name="Calque 2"><g id="ToExport"><rect x="213.21" y="93.22" width="60.35" height="32.02" style="fill:#cc9b5a"/><rect x="213.21" y="82.14" width="64.05" height="11.08" style="fill:#c68442"/><rect x="217.69" y="109.23" width="20.94" height="12.32" style="fill:#fff"/><rect x="295.21" y="93.22" width="60.35" height="32.02" style="fill:#428e69"/><rect x="295.21" y="82.14" width="64.05" height="11.08" style="fill:#337251"/><rect x="299.69" y="109.23" width="20.94" height="12.32" style="fill:#fff"/><rect x="311.9" y="50.22" width="60.35" height="32.02" transform="translate(684.16 132.47) rotate(-180)" style="fill:#4b728a"/><rect x="308.21" y="39.14" width="64.05" height="11.08" transform="translate(680.46 89.36) rotate(-180)" style="fill:#2e5b71"/><rect x="346.83" y="66.23" width="20.94" height="12.32" transform="translate(714.6 144.79) rotate(-180)" style="fill:#fff"/><rect x="347.21" y="93.22" width="60.35" height="32.02" style="fill:#4b728a"/><rect x="347.21" y="82.14" width="64.05" height="11.08" style="fill:#2e5b71"/><rect x="353.69" y="109.23" width="20.94" height="12.32" style="fill:#fff"/><rect x="105.93" y="73.27" width="92.37" height="51.73" style="fill:#ec7756"/><rect x="118.86" y="27.08" width="60.35" height="32.02" style="fill:#4b728a"/><rect x="118.86" y="16" width="64.05" height="11.08" style="fill:#2e5b71"/><rect x="153.34" y="43.1" width="20.94" height="12.32" style="fill:#fff"/><rect x="123.79" y="88.67" width="54.19" height="22.17" style="fill:#fff"/><rect x="101" y="58.49" width="97.3" height="14.78" style="fill:#c46d41"/><rect x="41.4" y="99.77" width="6.06" height="16.15" style="fill:#666"/><rect x="27.27" y="117.94" width="34.31" height="7.06" style="fill:#666"/><rect x="33.32" y="113.9" width="22.2" height="4.04" style="fill:#666"/><path d="M55.82,0,54.47,4.87A46.93,46.93,0,1,1,29.4,95.11L28.05,100A52,52,0,1,0,55.82,0Z" style="fill:#666"/><rect x="-3.99" y="50.82" width="99.15" height="2.02" transform="translate(-16.15 82.7) rotate(-75.23)" style="fill:#666"/><circle cx="44.42" cy="50.82" r="43.9" style="fill:#e8e8e8"/><path d="M27.59,81.38c-2.06.79-5.91,3.79-5,6.29C15.29,89.39,7.28,76,3.77,68.84c-3.1-7.3-5.93-22.89-1.42-27a8.46,8.46,0,0,0,4,7.71c1.11,2.18,10.46,3.34,9.77,6.17-.87,2.12.41,4.08,1.75,5.61,2.82,3.91-.15,9.26,1.17,13.7-.11,1.79,4.36,5.15,2.57,1.77-1.4-1.2,1.41-2.73-.18-3.4,1.83-4.08,5.9-7.45,7.41-11.5,1.23-3.65,1.19-4.68-2.88-5.69-2.15-2.22-5-4.5-8.56-4-2,1.07-1.85-1.47-3.32-1.42-.56.13-.65-.24-.63-.71.13-1.88-1.87.59-2.56-.62-.94-1.66,1.46-2.56,2.6-3.22,1.41-.67,1.92,4.07,2.11.31.69-6.37,8-7,5.12-8.64-.35-1.08.87-1.2,1.66-1.64-.86,1.21.59,2.49,1.48,1.65-.23-3-2.44-4.2-3.32-7-.86,1.21-1.49,1.26-2-.11-5.14-2.3.68,7.94-5,3.91-2.53-.31-2.15-3.85.28-4.08,1.94-.47,1.17-.82,1-2.22,1.11-.47-.28-2.45,1.08-2.25-.33,2,3,0,1,2-2.46.86,5.44,3.64,2.92-.31,1.61-.09,1.5-1.9.11-2.28-.57-4-6.82-3.15-5.33-4,3.49-1.69-2-1.17.58-2,3.3-4.15,1.37-.07,4.66-.72,5.48,0,2,8.38,5.68,10.78,1.79,1.45,3.41-5.83,6-6.42a12.24,12.24,0,0,0,1.69-10.51c6.18-15.95,50.55,6.51,29.51,4.54-2.67,2.14.3,4.28-3.47,2.76-.33,2.65-2.28-.7-3.3.9-1.58-.06-1.32,2.43-2.25.81-1.63-3.27-6.34-4.05-7.51,0-.39,2.54-4.39,4.23-2.39,7a2.59,2.59,0,0,1-1.41,3.14c-1.06-.72-1.32-5.44-2.59-2.91.79,1.13-3,3-.63,3.44.87-.18.89-.14.73.79,2.73-.39-.23.5.68,1.53a1.14,1.14,0,0,1,.28,1.42c-.49,1-2.14-.34-2.18,1.07.88,6.12-8.33,15.34,3.85,15.32,3.11,6.08,2.16,26.21,9.69,8.72-1.77-5.15,6.32-10,2.39-10.54,5.62-4,5.1-8.19,8.25,2,3.15,4.25-.5-4.11,4.33-3.8,2.68,4.42-.27,11.39,7,12,.32-1.59-1.18-1.21-1.57-2,3.34.54,9.33-1.34,8,4.15-1.29.14-.33-1.49-1.4-1.59-1.94-.09-3.22,2.28-4.72,3.22-3.2.73-1.4,8.15,1.92,5.13,9.62.75,4,7.66-.9,12.64a10.85,10.85,0,0,0-8,2c-2.25,1.87-1.51,1.23-3.09-.21-1.17-.21-2.37.37-3.35-.63-2.09-1.07-3.55,2.73-5.63,1.9C45,87.86,44.56,84.9,36.37,94c-2.95-.82-6.47-1.13-9.21-2.68C28.86,86.12,24,86.27,27.59,81.38Z" style="fill:#4b728a"/><path d="M78.67,44.79c3.68-1,4.55-5.28,7.18-7.67C90.1,43,87.62,78.58,82.21,62c-.42-1.39,2-.19,1.16-1.44-.61-1,1.19-.67,1.72-.59,3.74.48-7.45-2.86-8.31-3.57-1.48.47-2.33.45-2.08-1.3-1.37-1.57-3.81,5.27-4.6-2,1.71,1.79,2.77-1.85,1.51-3,1.51-2.77,5.33-1.31,4.32-7.21.84-1.26,1-.33,1.54.59,1.92-1.58-.3-2.83,3.42-4.52,1.29.06,0,3.56-1.11,4C78.9,43.33,78.05,43.71,78.67,44.79Z" style="fill:#4b728a"/><path d="M43.68,36.93c-1.53,4.89,2.51-2,1.62,3,2.42-2.26,1.87,1.14,2.9-1,.35,2,2.93,1,3,2.53-.13,2.43-3.29-.47-4.42.71-.95,0-2.71-1-2.17-2.32C41,40.15,39.51,38.79,43.68,36.93Z" style="fill:#4b728a"/><path d="M81.79,36.05c.85-1.75-2.13-2.22-1.17-3.28.71-.45,1.87-2.12,2.56-.82C87.36,37.24,80.57,41.39,81.79,36.05Z" style="fill:#4b728a"/><path d="M47.49,25.73c-.2,1.83,2.93,1.21,1.4,2-1.62.26-.66,3.6-2.6,2.63,0-1.27,1.59-2.49,1-3.74C47.21,26.37,47.13,25.81,47.49,25.73Z" style="fill:#4b728a"/><path d="M52.27,37.9c-.88-.14-2.12.26-2.83-.26C49.3,34.33,54.18,37.8,52.27,37.9Z" style="fill:#4b728a"/><path d="M51.5,45.63c.54,1.25,1.86,3,1.4,4.35C51.53,49.62,51.09,46.56,51.5,45.63Z" style="fill:#4b728a"/><path d="M9.57,28.16c-1.63-1.79.64-4,1.18-1.42C9.92,26.71,9.91,27.49,9.57,28.16Z" style="fill:#4b728a"/><path d="M12.72,23.31a3.23,3.23,0,0,0,.35,2.32C12.71,27.76,10.86,23.85,12.72,23.31Z" style="fill:#4b728a"/><path d="M13.37,22.33c-.38.92-.67.57-1.42,0C12.57,22.33,13.1,21.92,13.37,22.33Z" style="fill:#4b728a"/></g></g></svg>