<svg xmlns="http://www.w3.org/2000/svg" viewBox="0 0 134.62 170.65"><g id="Calque_2" data-name="Calque 2"><g id="ToExport"><rect width="134.62" height="170.65" style="fill:#e0e0e0"/><rect x="7" y="7.31" width="118.62" height="153.02" style="fill:#bc9975"/><path d="M65,12.31H11.86s-1.66,54.6,1.67,81.2H66.62C63.29,66.91,65,12.31,65,12.31Z" style="fill:#e0e0e0"/><path d="M65.62,102.31H33.7s-1,19,1,35H66.63C64.62,121.31,65.62,102.31,65.62,102.31Z" style="fill:#6da085"/><path d="M105.62,10.31H73.7s-1,19,1,35h31.93C104.62,29.31,105.62,10.31,105.62,10.31Z" style="fill:#eaca81"/><path d="M122.62,37.31H90.7s-1,19,1,35h31.93C121.62,56.31,122.62,37.31,122.62,37.31Z" style="fill:#ec7756"/><path d="M13.45,117.31H45.38s1,19-1,35H12.45C14.45,136.31,13.45,117.31,13.45,117.31Z" style="fill:#ec7756"/><rect x="17.62" y="19.31" width="42" height="13" style="fill:#eaca81"/><path d="M120,74.31H66.86s-1.66,54.6,1.67,81.2h53.09C118.29,128.91,120,74.31,120,74.31Z" style="fill:#e0e0e0"/><rect x="72.62" y="81.31" width="42" height="13" style="fill:#eaca81"/></g></g></svg>