<svg xmlns="http://www.w3.org/2000/svg" viewBox="0 0 53.5 53.5"><g id="Calque_2" data-name="Calque 2"><g id="FeuilleEncre"><path d="M0,53.5H14.86A19.93,19.93,0,0,1,10,48.12a18,18,0,0,1-3.3-8.27C6.39,36.89,5,31.16,5,22.63c0-5.36.51-5.36.51-10.71A82.18,82.18,0,0,1,6.39,0H0Z" style="fill:#f2edeb"/><path d="M29.15,46.16a7,7,0,0,0,3.59-1.47c.89-.82-1-4-1-7.59-.52-7.23.5-7.33.5-14.57,0-2.74,1.06-5,.45-6a4.64,4.64,0,0,0-3.53-2.06c-1.34,0-1.66,1.78-2.28,2.75s-1.13,2.45-1.13,5.29c0,7-.44,7-.44,14a12,12,0,0,0,1.51,6.33C27.45,43.91,27.78,46.16,29.15,46.16Z" style="fill:#f2edeb"/><path d="M43,0h-19c-.15,3.69-.56,4.69-.07,9.77a15.46,15.46,0,0,1,5.22-5.94,17.37,17.37,0,0,1,7.69-1.9c3.53,0,6.16,3.14,8.87,5.06A10.29,10.29,0,0,1,50,13.53C50.68,16.2,52.5,19.46,52.5,24c0,3.08-1.42,3.08-1.42,6.17,0,5.41,1.38,9.49,1,12.13a15.91,15.91,0,0,1-3.41,7.45,14.77,14.77,0,0,1-4.85,3.74H53.5V0h-5A16.8,16.8,0,0,1,43,0Z" style="fill:#f2edeb"/><path d="M5,22.63c0,8.53,1.39,14.26,1.69,17.22A18,18,0,0,0,10,48.12a19.93,19.93,0,0,0,4.87,5.38H43.78a14.77,14.77,0,0,0,4.85-3.74A15.91,15.91,0,0,0,52,42.31c.42-2.64-1-6.72-1-12.13,0-3.09,1.42-3.09,1.42-6.17,0-4.55-1.82-7.81-2.55-10.48A10.29,10.29,0,0,0,45.62,7c-2.71-1.92-5.34-5.06-8.87-5.06a17.37,17.37,0,0,0-7.69,1.9,15.46,15.46,0,0,0-5.22,5.94c-.49-5.08-.08-6.08.07-9.77H6.39a82.18,82.18,0,0,0-.88,11.92C5.51,17.27,5,17.27,5,22.63Zm20.79-.1c0-2.84.51-4.31,1.13-5.29s.94-2.75,2.28-2.75a4.64,4.64,0,0,1,3.53,2.06c.61,1-.45,3.24-.45,6,0,7.24-1,7.34-.5,14.57,0,3.57,1.85,6.77,1,7.59a7,7,0,0,1-3.59,1.47c-1.37,0-1.7-2.25-2.29-3.3a12,12,0,0,1-1.51-6.33C25.35,29.53,25.79,29.53,25.79,22.53Z" style="fill:#2e5b71"/><path d="M48.45,0H43A16.8,16.8,0,0,0,48.45,0Z" style="fill:#2e5b71"/></g></g></svg>