<svg xmlns="http://www.w3.org/2000/svg" viewBox="0 0 53.5 53.5"><g id="Calque_2" data-name="Calque 2"><g id="FeuilleEncre"><path d="M34.92,0a119.54,119.54,0,0,0,3.43,18.67c.78,3.9-2.73,6.63-5.46,5.46S29.77,17.5,30.94,8.92A39.77,39.77,0,0,0,30.9,0h-5a70.23,70.23,0,0,0-3.05,20.42,68.46,68.46,0,0,0,8.4,33.08H53.5V0Z" style="fill:#f2edeb"/><path d="M10.38,20.42A75.26,75.26,0,0,1,13.2,0H0V53.5H18.24A72.31,72.31,0,0,1,10.38,20.42Z" style="fill:#f2edeb"/><path d="M22.87,20.42A70.23,70.23,0,0,1,25.92,0H13.2a75.26,75.26,0,0,0-2.82,20.42A72.31,72.31,0,0,0,18.24,53.5h13A68.46,68.46,0,0,1,22.87,20.42Z" style="fill:#2e5b71"/><path d="M30.94,8.92c-1.17,8.58-.78,14,1.95,15.21s6.24-1.56,5.46-5.46A119.54,119.54,0,0,1,34.92,0h-4A39.77,39.77,0,0,1,30.94,8.92Z" style="fill:#2e5b71"/></g></g></svg>