<svg xmlns="http://www.w3.org/2000/svg" viewBox="0 0 53.5 53.5"><g id="Calque_2" data-name="Calque 2"><g id="FeuilleEncre"><path d="M41,1.26a29.48,29.48,0,0,1-10.94,2.1c-5.2,0-9.56-.61-12.88-2A12.72,12.72,0,0,1,14.86,0H0V23.16A56.9,56.9,0,0,0,29.1,31c8.74,0,16.9-3.14,24.4-6.86V0H43.78C42.9.45,42,.87,41,1.26Z" style="fill:#f2edeb"/><path d="M29.1,38.67a74.83,74.83,0,0,1-14.95-1.49c-2.26,1.91-2.19,4.26-1,7.21A50.11,50.11,0,0,0,16,50.13h0c2.23,4.24-4.24,4.72-5.58,0h0a44.1,44.1,0,0,0-2.95-6.55A76.45,76.45,0,0,0,.19,32.88L0,32.79V53.5H53.5V34.91A77.12,77.12,0,0,1,29.1,38.67Z" style="fill:#f2edeb"/><path d="M0,23.16v9.63l.19.09a76.45,76.45,0,0,1,7.25,10.7,44.1,44.1,0,0,1,3,6.55h0c1.34,4.72,7.81,4.24,5.58,0h0a50.11,50.11,0,0,1-2.87-5.74c-1.16-3-1.23-5.3,1-7.21a74.83,74.83,0,0,0,15,1.49,77.12,77.12,0,0,0,24.4-3.76V24.16C46,27.88,37.84,31,29.1,31A56.9,56.9,0,0,1,0,23.16Z" style="fill:#2e5b71"/><path d="M17.18,1.32c3.32,1.43,7.68,2,12.88,2A29.48,29.48,0,0,0,41,1.26C42,.87,42.9.45,43.78,0H14.86A12.72,12.72,0,0,0,17.18,1.32Z" style="fill:#2e5b71"/></g></g></svg>