<svg xmlns="http://www.w3.org/2000/svg" viewBox="0 0 53.5 53.5"><g id="Calque_2" data-name="Calque 2"><g id="FeuilleEncre"><path d="M0,24.16q2.44-1.21,4.8-2.48C10.73,18.51,17.56,16,22.16,11.21l-1.11-1.07c2.29-2.63,14.22-4.77,10.82.4-.18.27.48,1,.21,1.27,0,0,2.19,2,2.18,2-.19.21-2-1-2.17-.78A73.12,73.12,0,0,1,16.32,26.87,65.57,65.57,0,0,1,0,34.91V53.5H53.5V0H0Z" style="fill:#f2edeb"/><path d="M16.32,26.87A73.12,73.12,0,0,0,32.09,13c.17-.23,2,1,2.17.78,0,0-2.19-2-2.18-2,.27-.31-.39-1-.21-1.27,3.4-5.17-8.53-3-10.82-.4l1.11,1.07C17.56,16,10.73,18.51,4.8,21.68Q2.45,22.94,0,24.16V34.91A65.57,65.57,0,0,0,16.32,26.87Z" style="fill:#2e5b71"/></g></g></svg>