<svg xmlns="http://www.w3.org/2000/svg" viewBox="0 0 53.5 53.5"><g id="Calque_2" data-name="Calque 2"><g id="FeuilleEncre"><path d="M29.52,44.12a68.32,68.32,0,0,0-3.6,9.38h5C30.6,50.37,30.08,47.13,29.52,44.12Z" style="fill:#f2edeb"/><path d="M53.5,6.38V0H0V53.5H13.2A73.37,73.37,0,0,1,53.5,6.38Z" style="fill:#f2edeb"/><path d="M34.81,34.92a106.17,106.17,0,0,0,.11,18.58H53.5V17.19A60.78,60.78,0,0,0,34.81,34.92Z" style="fill:#f2edeb"/><path d="M29.52,44.12c.56,3,1.08,6.25,1.38,9.38h4a106.17,106.17,0,0,1-.11-18.58A60.78,60.78,0,0,1,53.5,17.19V6.38A73.37,73.37,0,0,0,13.2,53.5H25.92A68.32,68.32,0,0,1,29.52,44.12Z" style="fill:#2e5b71"/></g></g></svg>