<svg xmlns="http://www.w3.org/2000/svg" viewBox="0 0 53.5 53.5"><g id="Calque_2" data-name="Calque 2"><g id="FeuilleEncre"><path d="M33.19,51.24c0-3.59.71-5.29.63-6.23S32,43.94,31.26,43.3A2.77,2.77,0,0,0,29,42.23c-1,0-1.79-.14-2.42.46s-.29,1.44-.38,2.4S24,47.9,24,50.8c0,1.06,0,1.93-.05,2.7H43C40.45,53.08,38,52.13,33.19,51.24Z" style="fill:#f2edeb"/><path d="M6.39,53.5c.41-2.84.84-5,1-6.47.27-3.1-.74-7,1.2-9.73s6.24-2.66,9.58-4c2.95-1.85,3.74-6.64,5.26-14.79,1.08-5.81-1.79-8-4.94-8.37A55.65,55.65,0,0,0,0,17.19V53.5Z" style="fill:#f2edeb"/><path d="M29.1.17A64.57,64.57,0,0,1,53.5,4.92V0H0V6.38A70.84,70.84,0,0,1,29.1.17Z" style="fill:#f2edeb"/><path d="M33.41,9.32c-2.21,2.85-3.29,6.59-4.16,10.51a15.7,15.7,0,0,0,1.36,11.23c4.9-.15,9.29-1.07,12.49.54a17,17,0,0,1,7.42,8.07c1.49,3.19,2,8.15,2,13a42,42,0,0,1-4.12.84h5V14.64A59.13,59.13,0,0,0,33.41,9.32Z" style="fill:#f2edeb"/><path d="M0,6.38V17.19a55.65,55.65,0,0,1,18.46-7c3.15.38,6,2.56,4.94,8.37-1.52,8.15-2.31,12.94-5.26,14.79-3.34,1.33-7.66,1.26-9.58,4S7.63,43.93,7.36,47c-.13,1.48-.56,3.63-1,6.47H23.91c0-.77.05-1.64.05-2.7,0-2.9,2.15-4.76,2.25-5.71s-.26-1.79.38-2.4S28,42.23,29,42.23a2.77,2.77,0,0,1,2.25,1.07c.69.64,2.48.77,2.56,1.71s-.63,2.64-.63,6.23c4.76.89,7.26,1.84,9.76,2.26h5.5a42,42,0,0,0,4.12-.84c0-4.84-.56-9.8-2-13A17,17,0,0,0,43.1,31.6c-3.2-1.61-7.59-.69-12.49-.54a15.7,15.7,0,0,1-1.36-11.23c.87-3.92,1.95-7.66,4.16-10.51A59.13,59.13,0,0,1,53.5,14.64V4.92A64.57,64.57,0,0,0,29.1.17,70.84,70.84,0,0,0,0,6.38Z" style="fill:#2e5b71"/></g></g></svg>