<svg xmlns="http://www.w3.org/2000/svg" viewBox="0 0 53.5 53.5"><g id="Calque_2" data-name="Calque 2"><g id="FeuilleEncre"><path d="M0,0V4.92C16.29,11.52,29.36,24.45,37.85,40a67.18,67.18,0,0,1,5.21,12.33,3.06,3.06,0,0,1,.15,1.17H53.5V0Z" style="fill:#f2edeb"/><path d="M29,42.35l1.22-.7c-.95-1.6-2.09-3.16-3.17-4.66A69.4,69.4,0,0,0,0,14.64V53.5H40.87C37.13,51.4,30.13,44.47,29,42.35Z" style="fill:#f2edeb"/><path d="M27.06,37c1.08,1.5,2.22,3.06,3.17,4.66l-1.22.7c1.12,2.12,8.12,9,11.86,11.15h2.34a3.06,3.06,0,0,0-.15-1.17A67.18,67.18,0,0,0,37.85,40C29.36,24.45,16.29,11.52,0,4.92v9.72A69.4,69.4,0,0,1,27.06,37Z" style="fill:#2e5b71"/></g></g></svg>