<svg xmlns="http://www.w3.org/2000/svg" viewBox="0 0 513.87 326.27"><g id="Calque_2" data-name="Calque 2"><g id="Calque_1-2" data-name="Calque 1"><rect y="0.09" width="513.64" height="326.18" style="fill:#e8e8e8"/><text transform="translate(155.59 65.44)" style="font-size:26px;fill:#6591d1;font-family:BradleyHandITC, Bradley Hand ITC">Le bien être à l’école</text><text transform="translate(15.33 30.42)" style="font-size:16px;fill:#6591d1;font-family:BradleyHandITC, Bradley Hand ITC">Education civique</text><path d="M433.87,0H401.94s-1,19,1,35h31.93C432.87,19,433.87,0,433.87,0Z" style="fill:#eaca81"/><path d="M478.87,0H446.94s-1,19,1,35h31.93C477.87,19,478.87,0,478.87,0Z" style="fill:#ec7756"/><path d="M512.87,40H480.94s-1,19,1,35h31.93C511.87,59,512.87,40,512.87,40Z" style="fill:#eaca81"/><line x1="157.93" y1="75.12" x2="367.14" y2="75.12" style="fill:none;stroke:#6591d1;stroke-miterlimit:10"/><polygon points="0 278.2 513.64 326.27 0 326.27 0 278.2" style="fill:#ddd"/></g></g></svg>